<svg xmlns="http://www.w3.org/2000/svg" viewBox="0 0 144.09 114.49"><defs><style>.cls-1{fill:#b3b3b3;}</style></defs><title>icon_gray_mailsend</title><g id="レイヤー_2" data-name="レイヤー 2"><g id="レイヤー_1-2" data-name="レイヤー 1"><path class="cls-1" d="M104.72,48.65h0l0,0A14.57,14.57,0,0,0,95.08,45H14.63A14.57,14.57,0,0,0,5,48.63l0,0H5a14.6,14.6,0,0,0-5,11V99.86a14.59,14.59,0,0,0,5,11H5l0,0a14.56,14.56,0,0,0,9.61,3.62H95.08a14.56,14.56,0,0,0,9.61-3.62l0,0h0a14.59,14.59,0,0,0,5-11V59.64A14.59,14.59,0,0,0,104.72,48.65Zm-9.64.74a10.12,10.12,0,0,1,4.54,1.11l-44.76,43L10.1,50.5a10.12,10.12,0,0,1,4.54-1.11ZM4.39,59.64a10.13,10.13,0,0,1,2.28-6.35L34.19,79.75,6.66,106.22a10.15,10.15,0,0,1-2.28-6.36ZM14.63,110.1A10.09,10.09,0,0,1,10.1,109L37.36,82.79l16,15.36a2.19,2.19,0,0,0,3,0l16-15.36L99.62,109a10.09,10.09,0,0,1-4.54,1.11Zm90.69-10.25a10.14,10.14,0,0,1-2.28,6.36L75.52,79.74l27.53-26.47a10.14,10.14,0,0,1,2.28,6.35Z"/><path class="cls-1" d="M87.56,53.09a1.2,1.2,0,0,0,1.06-.86c.07-.17,5.51-13.4,28.21-13.85V51.53a1.65,1.65,0,0,0,.66,1.4,1,1,0,0,0,1.25-.16l24.88-25a1.87,1.87,0,0,0,0-2.47L118.75.32A1,1,0,0,0,117.5.16a1.66,1.66,0,0,0-.66,1.39V15.41c-.6,0-1.38-.09-2.31-.09-8.46,0-28.15,3.53-28.15,36.21A1.53,1.53,0,0,0,87.29,53,.91.91,0,0,0,87.56,53.09Zm53.39-26.54L119.21,48.38V36.82A1.41,1.41,0,0,0,118,35.26c-17.27,0-25.53,6.93-29.11,11.55,1.8-25.5,18.3-28.38,25.62-28.38a21.67,21.67,0,0,1,3.34.22,1,1,0,0,0,.94-.37,1.8,1.8,0,0,0,.4-1.17V4.71Z"/></g></g></svg>