<svg xmlns="http://www.w3.org/2000/svg" viewBox="0 0 30 35.43"><defs><style>.cls-1{fill:#a67c52;}</style></defs><title>icon_brown_reset</title><g id="レイヤー_2" data-name="レイヤー 2"><g id="レイヤー_1-2" data-name="レイヤー 1"><path id="icon_reload_white.svg" class="cls-1" d="M29.36,19.79a.64.64,0,0,0-.64.64A13.72,13.72,0,1,1,14.36,6.74v4.75a.64.64,0,0,0,.64.64.65.65,0,0,0,.23,0L29.59,6.66a.64.64,0,0,0,0-1.19L15.23,0a.64.64,0,0,0-.86.6v4.8A15,15,0,1,0,30,20.43.64.64,0,0,0,29.36,19.79ZM15.64,1.56l11.92,4.5-11.92,4.5Z"/></g></g></svg>