<svg xmlns="http://www.w3.org/2000/svg" viewBox="0 0 30 30"><defs><style>.cls-1{fill:#a67c52;}</style></defs><title>icon_brown_menu</title><g id="レイヤー_2" data-name="レイヤー 2"><g id="レイヤー_1-2" data-name="レイヤー 1"><g id="icon_products_white.svg"><path class="cls-1" d="M21.56,2V1.92A1.83,1.83,0,0,0,21.1.58,1.93,1.93,0,0,0,19.29,0L11.75,1.45A1.88,1.88,0,0,0,10.27.7a2,2,0,0,0-1.34.55L2.79,7a2.17,2.17,0,0,0-.7,1.63,2.07,2.07,0,0,0,.07.47,2.16,2.16,0,0,0-.81,1.42L.19,17.79H.11L.16,18,0,18.78a2.22,2.22,0,0,0,.42,1.75,1.68,1.68,0,0,0,.8.54c1.31,3.31,4,8.93,7.4,8.93a3.2,3.2,0,0,0,1.46-.36c2-1,1.8-5.74,1.45-8.83h0a2.69,2.69,0,0,0,2.31-2.17l.08-.38a2.52,2.52,0,0,0,1.14-.52L17.3,16a2.52,2.52,0,0,0,.68-.9l.88-.11a2.56,2.56,0,0,0,2.09-1.76,22.63,22.63,0,0,0,5.71,1.05h0c1.42,0,2.34-.36,2.8-1.1a3.5,3.5,0,0,0,.41-2.8C29.06,7,24.07,3.57,21.56,2ZM28.24,12.3c-.06.1-.35.41-1.58.41h0a22.12,22.12,0,0,1-5.57-1.07l.38-7.9c2.7,1.76,6.4,4.61,7,7A2,2,0,0,1,28.24,12.3Zm-8.66.29a.59.59,0,0,1,0,.16,1.1,1.1,0,0,1-.87.68l-.46.06a2.58,2.58,0,0,0-.29-.88L12.56,2.85l6.5-1.22.5-.09.16,0a.43.43,0,0,1,.32.11.26.26,0,0,1,.06.21V2l-.48,10ZM16.4,14.76l-.67.55-1.37,1.12-.16.13a1.14,1.14,0,0,1-.67.22,1.26,1.26,0,0,1-.72-.17l-.09-.06L7.55,12.17l-2-1.7L3.79,9a.72.72,0,0,1-.14-.16.54.54,0,0,1-.09-.28.61.61,0,0,1,.21-.46L9.91,2.39a.61.61,0,0,1,.23-.14.44.44,0,0,1,.14,0,.49.49,0,0,1,.41.3l.08.14.43.78,5.46,9.93a1,1,0,0,1,.1.3,1.24,1.24,0,0,1-.12.79A1,1,0,0,1,16.4,14.76Zm-3.94,3.55a1.22,1.22,0,0,1-.93,1h-.16l-.74,0-4.69.17-3.67.13-.49,0v.76h0v-.76a.24.24,0,0,1-.2-.09A.68.68,0,0,1,1.48,19l.07-.43.12-.76,1.12-7.09A.65.65,0,0,1,3,10.31l8.8,7.42a2.46,2.46,0,0,0,.69.4Zm-3,10a1.77,1.77,0,0,1-.81.21c-2,0-4.29-3.82-5.78-7.35l7.21-.26C10.47,24.38,10.35,27.82,9.47,28.27Z"/></g></g></g></svg>