<svg xmlns="http://www.w3.org/2000/svg" viewBox="0 0 30 30"><defs><style>.cls-1{fill:#a67c52;}</style></defs><title>icon_brown_calendar</title><g id="レイヤー_2" data-name="レイヤー 2"><g id="レイヤー_1-2" data-name="レイヤー 1"><g id="_222._Calender" data-name="222. Calender"><path class="cls-1" d="M17.37,15.79h0a1.58,1.58,0,0,0,0,3.16h0a1.58,1.58,0,0,0,0-3.16Zm-4.74-1.58a1.58,1.58,0,1,0-1.58-1.58A1.58,1.58,0,0,0,12.63,14.21Zm4.74-3.16h0a1.58,1.58,0,1,0,0,3.16h0a1.58,1.58,0,1,0,0-3.16Zm1.58-7.89H11.05V6.32h7.89Zm3.16,11.05a1.58,1.58,0,1,0-1.58-1.58A1.58,1.58,0,0,0,22.11,14.21Zm0,4.74a1.58,1.58,0,1,0-1.58-1.58A1.58,1.58,0,0,0,22.11,18.95Zm-9.47,0a1.58,1.58,0,1,0-1.58-1.58A1.58,1.58,0,0,0,12.63,18.95ZM7.89,23.68a1.58,1.58,0,1,0-1.58-1.58A1.58,1.58,0,0,0,7.89,23.68ZM26.84,3.16H25.26V6.32h1.58V26.84H3.16V6.32H4.74V3.16H3.16A3.16,3.16,0,0,0,0,6.32V26.84A3.16,3.16,0,0,0,3.16,30H26.84A3.16,3.16,0,0,0,30,26.84V6.32A3.16,3.16,0,0,0,26.84,3.16ZM7.89,18.95a1.58,1.58,0,1,0-1.58-1.58A1.58,1.58,0,0,0,7.89,18.95Zm0-4.74a1.58,1.58,0,1,0-1.58-1.58A1.58,1.58,0,0,0,7.89,14.21Zm4.74,9.47a1.58,1.58,0,1,0-1.58-1.58A1.58,1.58,0,0,0,12.63,23.68ZM7.89,6.32A1.58,1.58,0,0,0,9.47,4.74V1.58a1.58,1.58,0,0,0-3.16,0V4.74A1.58,1.58,0,0,0,7.89,6.32Zm14.21,0a1.58,1.58,0,0,0,1.58-1.58V1.58a1.58,1.58,0,0,0-3.16,0V4.74A1.58,1.58,0,0,0,22.11,6.32Z"/></g></g></g></svg>