<svg xmlns="http://www.w3.org/2000/svg" viewBox="0 0 30 30"><defs><style>.cls-1{fill:#a67c52;}</style></defs><title>icon_brown_close</title><g id="レイヤー_2" data-name="レイヤー 2"><g id="レイヤー_1-2" data-name="レイヤー 1"><g id="icon_cancel_blue.svg"><path class="cls-1" d="M25.53,25.7A15,15,0,1,1,25.7,4.47,15,15,0,0,1,25.53,25.7ZM5.33,5.18a13.78,13.78,0,1,0,19.49.16A13.8,13.8,0,0,0,5.33,5.18Z"/><path class="cls-1" d="M20.76,8.47,15,14.13,9.35,8.38a.61.61,0,0,0-.87.86L14.13,15,8.38,20.65a.61.61,0,1,0,.86.87L15,15.87l5.66,5.75a.61.61,0,0,0,.87-.86L15.87,15l5.75-5.66a.61.61,0,0,0-.86-.87Z"/></g></g></g></svg>