<svg xmlns="http://www.w3.org/2000/svg" viewBox="0 0 50 31.67"><defs><style>.cls-1{fill:#fff;}</style></defs><title>icon_white_mail</title><g id="レイヤー_2" data-name="レイヤー 2"><g id="レイヤー_1-2" data-name="レイヤー 1"><path class="cls-1" d="M47.72,1.66h0A6.64,6.64,0,0,0,43.33,0H6.67A6.64,6.64,0,0,0,2.29,1.65h0A6.65,6.65,0,0,0,0,6.67V25a6.65,6.65,0,0,0,2.28,5h0a6.63,6.63,0,0,0,4.38,1.65H43.33A6.63,6.63,0,0,0,47.71,30h0A6.65,6.65,0,0,0,50,25V6.67A6.65,6.65,0,0,0,47.72,1.66ZM43.33,2a4.61,4.61,0,0,1,2.07.5L25,22.11,4.6,2.5A4.61,4.61,0,0,1,6.67,2ZM2,6.67a4.61,4.61,0,0,1,1-2.9L15.58,15.83,3,27.9A4.62,4.62,0,0,1,2,25Zm4.67,23a4.6,4.6,0,0,1-2.07-.5L17,17.22l7.28,7a1,1,0,0,0,1.39,0l7.28-7L45.4,29.16a4.6,4.6,0,0,1-2.07.5ZM48,25a4.62,4.62,0,0,1-1,2.9L34.42,15.83,47,3.77a4.62,4.62,0,0,1,1,2.9Z"/></g></g></svg>