<svg xmlns="http://www.w3.org/2000/svg" viewBox="0 0 30 35.1"><defs><style>.cls-1{fill:#a67c52;}</style></defs><title>icon_brown_home</title><g id="レイヤー_2" data-name="レイヤー 2"><g id="レイヤー_1-2" data-name="レイヤー 1"><path class="cls-1" d="M29.15,17.41a.85.85,0,0,0-.85.85V33.4H19.18V23.9a.85.85,0,0,0-.85-.85H11.67a.85.85,0,0,0-.85.85v7.54a.85.85,0,1,0,1.7,0V24.75h5V33.4H1.7V12.6L15,1.94,28.62,12.85a.85.85,0,0,0,1.06-1.33L15.53.19a.85.85,0,0,0-1.06,0L.32,11.53a.85.85,0,0,0-.32.66V34.25a.85.85,0,0,0,.85.85h28.3a.85.85,0,0,0,.85-.85v-16A.85.85,0,0,0,29.15,17.41Z"/></g></g></svg>