<svg xmlns="http://www.w3.org/2000/svg" viewBox="0 0 28 44.4"><defs><style>.cls-1{fill:#fff;}</style></defs><title>icon_white_freash</title><g id="レイヤー_2" data-name="レイヤー 2"><g id="レイヤー_1-2" data-name="レイヤー 1"><g id="icon_freshly_white.svg"><path class="cls-1" d="M20.12,18.28V18.2a1.71,1.71,0,0,0-.43-1.25A1.8,1.8,0,0,0,18,16.44l-7,1.32a1.75,1.75,0,0,0-1.38-.71,1.85,1.85,0,0,0-1.25.52L2.6,22.9a2,2,0,0,0-.66,1.52,1.93,1.93,0,0,0,.06.44,2,2,0,0,0-.76,1.32L.18,33H.1l.05.16L0,33.93a2.07,2.07,0,0,0,.39,1.64,1.56,1.56,0,0,0,.75.5C2.4,39.15,4.94,44.4,8.08,44.4a3,3,0,0,0,1.36-.34c1.84-.93,1.68-5.36,1.36-8.24h0a2.51,2.51,0,0,0,2.16-2l.07-.35A2.36,2.36,0,0,0,14.1,33l2-1.67a2.35,2.35,0,0,0,.63-.84l.82-.1a2.39,2.39,0,0,0,2-1.64,21.12,21.12,0,0,0,5.33,1h0a2.84,2.84,0,0,0,2.62-1,3.27,3.27,0,0,0,.38-2.61C27.12,23,22.46,19.74,20.12,18.28Zm6.24,9.61c-.06.09-.33.38-1.47.38h0a20.65,20.65,0,0,1-5.2-1L20,19.9c2.52,1.64,6,4.3,6.52,6.51A1.83,1.83,0,0,1,26.36,27.88Zm-8.08.27a.55.55,0,0,1,0,.15,1,1,0,0,1-.81.63L17,29a2.41,2.41,0,0,0-.27-.82l-5-9.11,6.06-1.14.46-.09h.15a.41.41,0,0,1,.3.1.25.25,0,0,1,.06.2v.15l-.44,9.3Zm-3,2-.62.51-1.27,1-.15.12a1.07,1.07,0,0,1-.62.21,1.18,1.18,0,0,1-.67-.16l-.09-.06L7,27.76,5.15,26.17,3.54,24.81a.67.67,0,0,1-.13-.15.5.5,0,0,1-.09-.26.57.57,0,0,1,.2-.42l5.73-5.33a.57.57,0,0,1,.21-.13l.13,0a.46.46,0,0,1,.39.28l.07.13.4.73,5.1,9.27a.92.92,0,0,1,.09.28,1.16,1.16,0,0,1-.12.73A.91.91,0,0,1,15.3,30.18Zm-3.68,3.32a1.14,1.14,0,0,1-.87.91h-.15l-.69,0-4.37.16-3.42.12-.46,0v.71h0v-.71a.22.22,0,0,1-.19-.08.63.63,0,0,1-.08-.48l.06-.4L1.56,33l1-6.62a.61.61,0,0,1,.2-.4L11,32.95a2.29,2.29,0,0,0,.65.38ZM8.84,42.78a1.65,1.65,0,0,1-.76.19c-1.9,0-4-3.56-5.4-6.86l6.73-.24C9.77,39.15,9.66,42.37,8.84,42.78Z"/><path class="cls-1" d="M9.65,5a3.72,3.72,0,0,1,.23,3.81,9.42,9.42,0,0,1-1,1.16,18.17,18.17,0,0,0-3,3.28,4,4,0,0,0-.49,2.21c.11,1.12.68,2.3.31,1.9a7.18,7.18,0,0,1-.59-.75s-3.2-3.69.41-6.5c5.58-4.34,0-7.63.79-8C6.84,1.79,8.56,3.48,9.65,5Z"/><path class="cls-1" d="M18.36,2.95a3.72,3.72,0,0,1,.23,3.81,9.56,9.56,0,0,1-1,1.17,18.12,18.12,0,0,0-3,3.28,4,4,0,0,0-.49,2.21c.11,1.12.68,2.3.31,1.9a7,7,0,0,1-.59-.75s-3.21-3.69.41-6.5c5.58-4.34,0-7.63.79-8C15.56-.24,17.28,1.45,18.36,2.95Z"/><path class="cls-1" d="M27.08,6a3.72,3.72,0,0,1,.23,3.81,9.56,9.56,0,0,1-1,1.17,18.12,18.12,0,0,0-3,3.28,4,4,0,0,0-.49,2.21c.11,1.12.68,2.3.31,1.9a7,7,0,0,1-.59-.75s-3.21-3.69.41-6.5c5.58-4.34,0-7.63.79-8C24.27,2.81,26,4.49,27.08,6Z"/></g></g></g></svg>