<?xml version="1.0" encoding="utf-8"?>
<!-- Generator: Adobe Illustrator 22.0.1, SVG Export Plug-In . SVG Version: 6.00 Build 0)  -->
<!DOCTYPE svg PUBLIC "-//W3C//DTD SVG 1.1//EN" "http://www.w3.org/Graphics/SVG/1.1/DTD/svg11.dtd">
<svg version="1.1" id="Capa_1" xmlns="http://www.w3.org/2000/svg" xmlns:xlink="http://www.w3.org/1999/xlink" x="0px" y="0px"
	 viewBox="0 0 29 30" style="enable-background:new 0 0 29 30;" xml:space="preserve">
<style type="text/css">
	.st0{fill:#FFFFFF;}
</style>
<g>
	<path class="st0" d="M25,19.1V26H4v-6.9H0V28c0,1.1,0.9,2,2,2h25c1.1,0,2-0.9,2-2v-8.9H25z"/>
	<path class="st0" d="M14.2,18.5l-5.8-7c0,0-0.9-0.8,0.1-0.8c1,0,3.3,0,3.3,0s0-0.6,0-1.4c0-2.5,0-6.9,0-8.7c0,0-0.1-0.5,0.6-0.5
		c0.8,0,4,0,4.6,0c0.5,0,0.5,0.4,0.5,0.4c0,1.8,0,6.4,0,8.8c0,0.8,0,1.3,0,1.3s1.8,0,3,0c1.2,0,0.3,0.9,0.3,0.9s-4.9,6.5-5.6,7.2
		C14.6,19,14.2,18.5,14.2,18.5z"/>
</g>
</svg>
