<svg xmlns="http://www.w3.org/2000/svg" viewBox="0 0 25.39 30"><defs><style>.cls-1{fill:#a67c52;}</style></defs><title>icon_brown_delete</title><g id="レイヤー_2" data-name="レイヤー 2"><g id="レイヤー_1-2" data-name="レイヤー 1"><path class="cls-1" d="M24.8,3.47H17a1.75,1.75,0,0,0,.11-.59V1.76A1.76,1.76,0,0,0,15.35,0H9.86A1.76,1.76,0,0,0,8.11,1.76V2.89a1.74,1.74,0,0,0,.11.59H.58a.58.58,0,1,0,0,1.17H3.08A1.58,1.58,0,0,0,3,5.23V28.39A1.61,1.61,0,0,0,4.57,30H20.82a1.61,1.61,0,0,0,1.61-1.61V5.23a1.6,1.6,0,0,0-.11-.59H24.8a.59.59,0,1,0,0-1.17ZM9.28,2.89V1.76a.59.59,0,0,1,.58-.59h5.49a.59.59,0,0,1,.59.59V2.89a.59.59,0,0,1-.59.59H9.86A.59.59,0,0,1,9.28,2.89ZM21.55,5.23V28.39a.73.73,0,0,1-.73.73H4.57a.73.73,0,0,1-.73-.73V5.23a.72.72,0,0,1,.32-.59H21.23A.72.72,0,0,1,21.55,5.23Z"/><path class="cls-1" d="M7.65,8.22a.44.44,0,0,0-.44.44V25a.44.44,0,0,0,.88,0V8.66A.44.44,0,0,0,7.65,8.22Z"/><path class="cls-1" d="M12.69,8.22a.44.44,0,0,0-.44.44V25a.44.44,0,0,0,.88,0V8.66A.44.44,0,0,0,12.69,8.22Z"/><path class="cls-1" d="M17.82,25.4a.44.44,0,0,0,.44-.44V8.66a.44.44,0,0,0-.88,0V25A.44.44,0,0,0,17.82,25.4Z"/></g></g></svg>