<svg xmlns="http://www.w3.org/2000/svg" viewBox="0 0 61.83 53.02"><defs><style>.cls-1{fill:#fff;}</style></defs><title>icon_white_mailsend</title><g id="レイヤー_2" data-name="レイヤー 2"><g id="レイヤー_1-2" data-name="レイヤー 1"><path class="cls-1" d="M44.47,25.06h0a6.19,6.19,0,0,0-4.08-1.54H6.21A6.19,6.19,0,0,0,2.13,25h0A6.2,6.2,0,0,0,0,29.72V46.8a6.2,6.2,0,0,0,2.12,4.66h0A6.18,6.18,0,0,0,6.21,53H40.38a6.18,6.18,0,0,0,4.08-1.54h0a6.2,6.2,0,0,0,2.12-4.66V29.72A6.19,6.19,0,0,0,44.47,25.06Zm-4.09.31a4.3,4.3,0,0,1,1.93.47l-19,18.27-19-18.27a4.3,4.3,0,0,1,1.93-.47ZM1.86,29.72a4.3,4.3,0,0,1,1-2.7L14.52,38.26,2.83,49.5a4.31,4.31,0,0,1-1-2.7ZM6.21,51.15a4.29,4.29,0,0,1-1.93-.47L15.86,39.55l6.79,6.52a.93.93,0,0,0,1.29,0l6.79-6.52L42.3,50.68a4.29,4.29,0,0,1-1.93.47ZM44.73,46.8a4.31,4.31,0,0,1-1,2.7L32.07,38.26,43.76,27a4.3,4.3,0,0,1,1,2.7Z"/><path class="cls-1" d="M32,28a.63.63,0,0,0,.56-.45c0-.09,2.91-7.07,14.9-7.31v6.94a.87.87,0,0,0,.35.74.51.51,0,0,0,.66-.08l13.14-13.2a1,1,0,0,0,0-1.3L48.45.17a.51.51,0,0,0-.66-.09.87.87,0,0,0-.35.74V8.14c-.32,0-.73,0-1.22,0-4.47,0-14.87,1.86-14.87,19.12a.81.81,0,0,0,.48.8ZM60.17,14,48.69,25.55V19.44a.74.74,0,0,0-.63-.82c-9.12,0-13.48,3.66-15.37,6.1,1-13.47,9.66-15,13.53-15A11.44,11.44,0,0,1,48,9.85a.54.54,0,0,0,.5-.2A1,1,0,0,0,48.69,9V2.49Z"/></g></g></svg>