<svg xmlns="http://www.w3.org/2000/svg" viewBox="0 0 30 30"><defs><style>.cls-1{fill:#a67c52;}</style></defs><title>icon_brown_info</title><g id="レイヤー_2" data-name="レイヤー 2"><g id="レイヤー_1-2" data-name="レイヤー 1"><g id="icon_information_black.svg"><path class="cls-1" d="M15,0A15,15,0,1,0,30,15,15,15,0,0,0,15,0Zm0,28.65A13.65,13.65,0,1,1,28.65,15,13.67,13.67,0,0,1,15,28.65Z"/><path class="cls-1" d="M14.9,10.11a1,1,0,0,0-1,1v11.4a1,1,0,1,0,2,0V11.11A1,1,0,0,0,14.9,10.11Z"/><circle class="cls-1" cx="14.97" cy="7.31" r="1.23"/></g></g></g></svg>