<svg xmlns="http://www.w3.org/2000/svg" viewBox="0 0 30 29.97"><defs><style>.cls-1{fill:#fff;}</style></defs><title>icon_white_cart</title><g id="レイヤー_2" data-name="レイヤー 2"><g id="レイヤー_1-2" data-name="レイヤー 1"><g id="Cart"><path class="cls-1" d="M30,.71A.94.94,0,0,0,28.84,0L25.08,1a.94.94,0,0,0-.7.76l-.47,3L.82,7.5l-.05,0H.71a.84.84,0,0,0-.14.07l-.15.07a.94.94,0,0,0-.17.16.94.94,0,0,0-.08.08v0A.93.93,0,0,0,0,8.18a.88.88,0,0,0,0,.09,1,1,0,0,0,0,.38L2.84,19.9l.94,3.75s0,0,0,.07a.82.82,0,0,0,.06.13A.85.85,0,0,0,4,24l.09.09a1,1,0,0,0,.18.12l.1.05a1,1,0,0,0,.33.06H24.37a.94.94,0,1,0,0-1.87h-19l-.47-1.87H22.5a.9.9,0,0,0,.33-.06l.11-.06a.91.91,0,0,0,.17-.1,1.13,1.13,0,0,0,.09-.11.5.5,0,0,0,.17-.3.85.85,0,0,0,.05-.15v0h0L26.14,2.63l3.15-.79A.94.94,0,0,0,30,.71Zm-25.49,18L2.1,9.23,5,8.89l1.41,9.85Zm3.83,0L6.87,8.66l2.92-.35.47,10.42Zm5.79,0h-2L11.66,8.09l2.92-.35Zm3.82,0H16l.49-11.22,2.9-.35Zm3.76,0H19.81l1.48-11.8,2-.24ZM8.43,26.23a1.87,1.87,0,1,0,1.88,1.87A1.88,1.88,0,0,0,8.43,26.23Zm12.19,0A1.87,1.87,0,1,0,22.5,28.1,1.88,1.88,0,0,0,20.63,26.23Z"/></g></g></g></svg>