<svg xmlns="http://www.w3.org/2000/svg" viewBox="0 0 30 39.34"><defs><style>.cls-1{fill:#a67c52;}</style></defs><title>icon_brown_login</title><g id="レイヤー_2" data-name="レイヤー 2"><g id="レイヤー_1-2" data-name="レイヤー 1"><g id="icon_login_white.svg"><path class="cls-1" d="M22,21.73a.74.74,0,0,0-1,0L15.74,27V.74a.74.74,0,1,0-1.48,0V27L9,21.73a.74.74,0,1,0-1,1l6.52,6.52a.74.74,0,0,0,1,0L22,22.78A.74.74,0,0,0,22,21.73Z"/><path class="cls-1" d="M25.08,9.34H19.8a.73.73,0,0,0,0,1.47h5.28a3.45,3.45,0,0,1,3.44,3.44V34.42a3.45,3.45,0,0,1-3.44,3.44H4.92a3.45,3.45,0,0,1-3.44-3.44V14.26a3.45,3.45,0,0,1,3.44-3.44h5.28a.73.73,0,0,0,0-1.47H4.92A4.93,4.93,0,0,0,0,14.26V34.42a4.93,4.93,0,0,0,4.92,4.92H25.08A4.93,4.93,0,0,0,30,34.42V14.26A4.93,4.93,0,0,0,25.08,9.34Z"/></g></g></g></svg>