<svg xmlns="http://www.w3.org/2000/svg" viewBox="0 0 30 30"><defs><style>.cls-1{fill:#a67c52;}</style></defs><title>icon_brown_mypage</title><g id="レイヤー_2" data-name="レイヤー 2"><g id="レイヤー_1-2" data-name="レイヤー 1"><path id="icon_man_black.svg" class="cls-1" d="M30,15A15,15,0,1,0,3.76,24.93h0l.72.71.28.28h0a15,15,0,0,0,20.47,0h0l.28-.28.73-.72h0A14.86,14.86,0,0,0,30,15ZM1.27,15A13.73,13.73,0,1,1,24.9,24.52L19,22.47v-2.2a4.22,4.22,0,0,0,2.18-3.69v-8A4.23,4.23,0,0,0,17,4.32H13A4.23,4.23,0,0,0,8.82,8.55v8A4.22,4.22,0,0,0,11,20.27v2.15L5.06,24.48A13.63,13.63,0,0,1,1.27,15ZM15,28.73a13.64,13.64,0,0,1-8.9-3.27l6.24-2.17,0-.49s0-.09,0-.14a.69.69,0,0,1,0-.1V19.45l-.38-.16a3,3,0,0,1-1.79-2.72v-8a3,3,0,0,1,2.36-2.9,2.93,2.93,0,0,1,.6-.06H17a2.89,2.89,0,0,1,.6.06,3,3,0,0,1,2.36,2.9v8a3,3,0,0,1-1.79,2.72l-.38.16v3.11a1.1,1.1,0,0,1,0,.15l-.07.63,6.2,2.16A13.64,13.64,0,0,1,15,28.73Z"/></g></g></svg>