<svg xmlns="http://www.w3.org/2000/svg" viewBox="0 0 26 41.23"><defs><style>.cls-1{fill:#a67c52;}</style></defs><title>icon_brown_freash</title><g id="レイヤー_2" data-name="レイヤー 2"><g id="レイヤー_1-2" data-name="レイヤー 1"><g id="icon_freshly_white.svg"><path class="cls-1" d="M18.68,17V16.9a1.59,1.59,0,0,0-.4-1.16,1.67,1.67,0,0,0-1.56-.47l-6.54,1.23a1.63,1.63,0,0,0-1.28-.66,1.72,1.72,0,0,0-1.16.48l-5.32,5a1.88,1.88,0,0,0-.61,1.41,1.79,1.79,0,0,0,.06.41,1.88,1.88,0,0,0-.7,1.23l-1,6.33H.09l0,.15L0,31.5A1.92,1.92,0,0,0,.39,33a1.45,1.45,0,0,0,.7.47c1.14,2.87,3.5,7.74,6.41,7.74a2.78,2.78,0,0,0,1.26-.31c1.71-.87,1.56-5,1.26-7.65h0a2.33,2.33,0,0,0,2-1.88l.07-.33a2.19,2.19,0,0,0,1-.45L15,29.06a2.18,2.18,0,0,0,.59-.78l.76-.1a2.22,2.22,0,0,0,1.81-1.52,19.61,19.61,0,0,0,5,.91h0a2.64,2.64,0,0,0,2.43-1,3,3,0,0,0,.36-2.43C25.19,21.33,20.86,18.33,18.68,17Zm5.79,8.92c-.05.08-.31.36-1.37.36h0a19.17,19.17,0,0,1-4.82-.93l.33-6.85c2.34,1.52,5.55,4,6.05,6A1.7,1.7,0,0,1,24.47,25.89Zm-7.5.25a.52.52,0,0,1,0,.14,1,1,0,0,1-.75.59l-.4.05a2.24,2.24,0,0,0-.25-.76L10.89,17.7l5.63-1.06.43-.08h.14a.38.38,0,0,1,.28.09.23.23,0,0,1,.05.18V17L17,25.6ZM14.21,28l-.58.47-1.18,1-.14.11a1,1,0,0,1-.58.19,1.09,1.09,0,0,1-.62-.15L11,29.56,6.54,25.78,4.79,24.3,3.28,23a.62.62,0,0,1-.12-.14.47.47,0,0,1-.08-.24.53.53,0,0,1,.19-.39l5.32-5a.53.53,0,0,1,.2-.12l.12,0a.43.43,0,0,1,.36.26l.07.12.37.67,4.74,8.61a.86.86,0,0,1,.09.26,1.08,1.08,0,0,1-.11.68A.85.85,0,0,1,14.21,28ZM10.79,31.1a1.06,1.06,0,0,1-.8.84H9.85l-.64,0-4.06.14L2,32.23l-.42,0v.66h0v-.66a.21.21,0,0,1-.17-.08.59.59,0,0,1-.08-.45l.06-.37.1-.66,1-6.15a.56.56,0,0,1,.18-.37l7.63,6.43a2.13,2.13,0,0,0,.6.35ZM8.21,39.73a1.54,1.54,0,0,1-.71.18c-1.76,0-3.72-3.31-5-6.37l6.25-.22C9.07,36.36,9,39.34,8.21,39.73Z"/><path class="cls-1" d="M9,4.62a3.45,3.45,0,0,1,.21,3.53,8.75,8.75,0,0,1-.93,1.08,16.87,16.87,0,0,0-2.8,3A3.76,3.76,0,0,0,5,14.33c.1,1,.63,2.13.29,1.77a6.67,6.67,0,0,1-.55-.7s-3-3.43.38-6c5.18-4,0-7.08.73-7.45C6.35,1.67,8,3.23,9,4.62Z"/><path class="cls-1" d="M17.05,2.74a3.45,3.45,0,0,1,.21,3.53,8.88,8.88,0,0,1-.93,1.08,16.83,16.83,0,0,0-2.8,3,3.76,3.76,0,0,0-.46,2.05c.11,1,.63,2.13.29,1.77a6.53,6.53,0,0,1-.55-.7s-3-3.43.38-6c5.18-4,0-7.08.73-7.45C14.44-.22,16,1.35,17.05,2.74Z"/><path class="cls-1" d="M25.15,5.56a3.45,3.45,0,0,1,.21,3.53,8.88,8.88,0,0,1-.93,1.08,16.83,16.83,0,0,0-2.8,3,3.76,3.76,0,0,0-.46,2.05c.11,1,.63,2.13.29,1.77a6.53,6.53,0,0,1-.55-.7s-3-3.43.38-6c5.18-4,0-7.08.73-7.45C22.54,2.61,24.14,4.17,25.15,5.56Z"/></g></g></g></svg>