<svg xmlns="http://www.w3.org/2000/svg" viewBox="0 0 30 30.22"><defs><style>.cls-1{fill:#a67c52;}</style></defs><title>icon_brown_shop</title><g id="レイヤー_2" data-name="レイヤー 2"><g id="レイヤー_1-2" data-name="レイヤー 1"><g id="icon_shop_white.svg"><path class="cls-1" d="M28.87,27V12.84a2.86,2.86,0,0,0,1-2.13V0H.29V10.71a2.86,2.86,0,0,0,.9,2.09V27H0v3.17H30V27ZM24.09,4.77v5.94a1.9,1.9,0,1,1-3.8,0V4.77Zm-9.53,0v5.94a1.9,1.9,0,0,1-3.79,0v-6Zm-4.76,0v6a1.9,1.9,0,0,1-3.8,0V4.77ZM1.24,10.71V4.77H5v5.94a1.9,1.9,0,1,1-3.8,0ZM17.78,22.28h-14v-7h14Zm1.55-11.57a1.9,1.9,0,1,1-3.8,0V4.77h3.8Zm6.83,15.95h-6V15.25h6Zm2.69-15.95a1.9,1.9,0,1,1-3.8,0V4.77h3.8Z"/></g></g></g></svg>