<svg xmlns="http://www.w3.org/2000/svg" viewBox="0 0 30 30"><defs><style>.cls-1{fill:#a67c52;}</style></defs><title>icon_brown_help</title><g id="レイヤー_2" data-name="レイヤー 2"><g id="レイヤー_1-2" data-name="レイヤー 1"><g id="icon_help_white.svg"><path class="cls-1" d="M15,0A15,15,0,1,0,30,15,15,15,0,0,0,15,0Zm0,28.65A13.65,13.65,0,1,1,28.65,15,13.67,13.67,0,0,1,15,28.65Z"/><path class="cls-1" d="M15.11,5.78a7.18,7.18,0,0,0-3.49.88l.39,1A5.52,5.52,0,0,1,14.61,7c1.87,0,3,1.05,3,2.74,0,1.37-.74,2.51-2,4A6,6,0,0,0,14,18.27l0,.39h1.43v-.34A5.78,5.78,0,0,1,17.06,14c1.34-1.59,2.28-2.84,2.28-4.56S18.24,5.78,15.11,5.78Z"/><path class="cls-1" d="M14.7,21.52A1.36,1.36,0,1,0,16,22.88,1.26,1.26,0,0,0,14.7,21.52Z"/></g></g></g></svg>