<svg xmlns="http://www.w3.org/2000/svg" viewBox="0 0 50 50"><defs><style>.cls-1{fill:#b3b3b3;}</style></defs><title>icon_gray_edit</title><g id="レイヤー_2" data-name="レイヤー 2"><g id="レイヤー_1-2" data-name="レイヤー 1"><g id="icon_edit_white.svg"><path class="cls-1" d="M40.13,42.81a5,5,0,0,1-5,5h-28a5,5,0,0,1-5-5V14.51a5,5,0,0,1,5-5H30.77l2.18-2.2H7.13A7.17,7.17,0,0,0,0,14.51V42.81A7.17,7.17,0,0,0,7.13,50h28a7.17,7.17,0,0,0,7.13-7.19V17.57l-2.18,2.2Z"/><path class="cls-1" d="M48.89,1.09a3.88,3.88,0,0,0-5.39,0l-21.82,22c-.22.23-.82.82-1.21,5.47l-.11,1.3,1.29-.12c4.62-.41,5.2-1,5.42-1.22l21.82-22A3.87,3.87,0,0,0,48.89,1.09ZM47.35,5,25.6,26.91a15.71,15.71,0,0,1-2.83.52,15.4,15.4,0,0,1,.52-2.85L45,2.64A1.64,1.64,0,1,1,47.35,5Z"/></g></g></g></svg>