<svg xmlns="http://www.w3.org/2000/svg" xmlns:xlink="http://www.w3.org/1999/xlink" viewBox="0 0 87.64 87.64"><defs><style>.cls-1{fill:#ee4f4b;}.cls-2{fill:#fff;}.cls-3{fill:#ef847b;}.cls-4{fill:none;stroke:#ee4f4b;stroke-miterlimit:10;stroke-width:4px;}</style><symbol id="ロゴ" data-name="ロゴ" viewBox="0 0 317.65 317.65"><path class="cls-1" d="M187.86,111.41a9.42,9.42,0,0,1-.24-9.88A28.3,28.3,0,0,0,169,59.47a9.06,9.06,0,0,1-6.23-5.41,35.54,35.54,0,0,0-49-17.08,9.23,9.23,0,0,1-6.24.87c-10.2-2.19-21.68-.93-33.41,5.9A37.72,37.72,0,0,0,58.75,60.58c-12.43,27.23,1.7,53.78,24.58,62a10,10,0,0,1,6.28,6.71A38.77,38.77,0,0,0,142.71,154a9.52,9.52,0,0,1,8,.14c7.76,3.66,17.37,4,27-.69a24.89,24.89,0,0,0,11.55-11.68C194.66,130.64,193.25,119.61,187.86,111.41Z"/><path class="cls-2" d="M113,72.22c0,.73-1.81,4.9-2.09,5.62-.82,1.72-6.26,14.42-6.26,26.4,0,1.27.09,7.71,1.27,7.71,1,0,6.17-18.59,7.35-18.59.18,0,.27.18.27.54a67.59,67.59,0,0,1-1.09,6.89c-1.81,9.07-2.36,11.61-2.36,16.05a10.78,10.78,0,0,0,1,5.08,18.1,18.1,0,0,1,1.18,3.63c0,1.81-1.18,4-3.27,4-5.17,0-8.62-12.43-8.62-23.58a92.42,92.42,0,0,1,2.45-19.32c2.36-11.25,2.63-12.43,2.63-16.15a24.58,24.58,0,0,0-.91-7,14.86,14.86,0,0,1-.82-1.72c0-.18.09-.36.27-.36C108,60.61,113,69.86,113,72.22Zm12.34,13.24A12.81,12.81,0,0,1,127,86.55c2.27,1.45,6.44,2.63,12,2.63,5.08,0,5.26-.91,5.26-2.18,0-8.71-.54-9.89-1.18-11.25A26.93,26.93,0,0,1,141.58,73c0-.45,1.18-.73,1.91-.73,2.27,0,6.89,1.63,6.89,4.81,0,.73-1.36,8.16-1.36,9.07a.72.72,0,0,0,.73.82c.63,0,4.72-1.27,4.72-3.72,0-.36-.18-.73-.91-1.81-.09-.18-.36-.45-.36-.63s.46-.18,1.09-.18c6.71,0,8.71.73,8.71,3.18,0,4.26-8.53,7.71-12.34,8.62-1.27.27-1.72.54-1.72,1.81,0,4.35,1.18,11,1.81,14.6.46,2.81.55,3,2.36,3.45,8.35,2,13.61,6,13.61,8.8,0,1.63-1.72,3.72-3.36,3.72-1,0-4.53-3.18-5.35-3.72a11.53,11.53,0,0,0-5.44-2.36c-.91,0-.91.54-.91,1.63-.09,2.63-1.45,10.7-12.79,10.7-10.07,0-12.7-6.35-12.7-9.62,0-5.71,5.71-9.89,16.6-10.25,2.45-.09,3-.18,3-2.18,0-1.09-.36-7.62-1-13.7a1.39,1.39,0,0,0-1.63-1.45c-.82,0-4.17.36-4.9.36-4.35,0-8.07-.73-11.16-4-1-1-2.18-2.63-2.18-3.9C124.89,86.19,124.89,85.46,125.34,85.46Zm5.62-21a21.25,21.25,0,0,0,5.17.45,45.57,45.57,0,0,0,14.15-2.54,6,6,0,0,1,3.45-.91c.27,0,2.9,0,2.9,2.27,0,3.45-6,5.81-15.24,5.81-4.63,0-7.89-.73-10.62-3.08-.45-.45-1.36-1.45-1.36-1.81a.5.5,0,0,1,.27-.45A6.46,6.46,0,0,1,131,64.42Zm-1.09,56.33c0,3.17,4.54,4.08,7.53,4.08,4.08,0,8.62-1.91,8.62-7,0-1.18,0-2.36-5.81-2.36C133.41,115.49,129.87,118.3,129.87,120.75Z"/><path class="cls-3" d="M260.7,130.41a25.33,25.33,0,0,0-9-19.38,10.79,10.79,0,0,1-3.52-5.91A21.61,21.61,0,0,0,209,98c-.42,0-.83-.06-1.26-.06a20.21,20.21,0,0,0-12,3.93,15.14,15.14,0,0,1-2.51,1.5,24.2,24.2,0,0,0-3.89,41.54,13,13,0,0,1,3.77,4.53l0,0A24.1,24.1,0,0,0,234,158.85a11.34,11.34,0,0,1,6.18-3.51A25.41,25.41,0,0,0,260.7,130.41Z"/><path class="cls-2" d="M199.8,127.77c3.06,0,8.48-3,8.48-3.75a4.64,4.64,0,0,0-.86-1.72c-3.59-4.88-4-5.42-4-6.54,0-1.72,2.84-3.59,7.88-3.59a34.92,34.92,0,0,1,5,.38,13.91,13.91,0,0,0,2,.16,1.32,1.32,0,0,0,1.5-1.45c0-.27-.38-1.61-.38-1.88a.37.37,0,0,1,.38-.38c.64,0,3.86,2.25,3.86,5.15,0,.27-.27,1.29-.27,1.56s.05.48.38.48,1.34-.43,1.61-.48a21.6,21.6,0,0,1,5.2-.8c5.42,0,10.3,4.56,10.3,9.66,0,3.22-2.25,8.32-9.28,8.32a13.52,13.52,0,0,1-10-5c0-.16.16-.21.32-.21s1.93.64,2.25.75a14.3,14.3,0,0,0,5.26,1.18c2.79,0,7.3-1.45,7.3-6a6.45,6.45,0,0,0-6.81-6.49c-4.45,0-7.24,1.77-15.72,7.19-1.61,1-1.61,1.07-1.61,1.45a2.49,2.49,0,0,0,.59,1.29c3.22,5.2,8.85,15.77,8.85,20.49,0,2.09-1.29,3.22-2.41,3.22-1.61,0-2.31-1.56-2.31-3.17,0-3.75,0-4.13-.59-6.44a50.53,50.53,0,0,0-5.63-13.36c-.22-.32-.43-.64-.75-.64a11.12,11.12,0,0,0-2.25,1.39c-.59.38-5,3.22-6.65,3.22-1,0-3.81-2.9-3.81-3.54a.53.53,0,0,1,.48-.54C198.3,127.66,199.1,127.77,199.8,127.77ZM207,116.34c0,1.07.22,1.45,2.41,4.88,1,1.45,1,1.61,1.45,1.61a3.23,3.23,0,0,0,1.29-.64,79.09,79.09,0,0,1,7.08-4c.54-.27.75-.48.75-.75s-.16-.32-1.66-1c-5.1-2.2-6.12-2.63-7.46-2.9C208.28,113.07,207,114.78,207,116.34Z"/><path class="cls-1" d="M277,223a34.69,34.69,0,0,0-7.61-21.73,15.15,15.15,0,0,1-2.77-12.56,27.53,27.53,0,0,0,.15-10.37,27.15,27.15,0,0,0-44.08-16.08,2.56,2.56,0,0,1-3.15.13,29.27,29.27,0,0,0-17-5.39c-11.49,0-17,8.63-26.49,13.67a62,62,0,0,1-18.2,6.37c-15.21,2.69-22.88,20.4-23.67,33.31-.85,14.08,6.79,36.12,23.22,37.71a2.51,2.51,0,0,1,1.74.94,22.75,22.75,0,0,0,28.64,6,2.48,2.48,0,0,1,2-.17h0a11,11,0,0,1,5.76,4.33,31,31,0,0,0,52-.14,5.19,5.19,0,0,1,3.1-2.22A34.87,34.87,0,0,0,277,223Z"/><path class="cls-2" d="M192.9,187.54c0,.72-1.81,4.9-2.09,5.62-.82,1.72-6.26,14.42-6.26,26.4,0,1.27.09,7.71,1.27,7.71,1,0,6.17-18.59,7.35-18.59.18,0,.27.18.27.54a67.65,67.65,0,0,1-1.09,6.89c-1.81,9.07-2.36,11.61-2.36,16.05a10.77,10.77,0,0,0,1,5.08,18.14,18.14,0,0,1,1.18,3.63c0,1.81-1.18,4-3.27,4-5.17,0-8.62-12.43-8.62-23.59A92.4,92.4,0,0,1,182.74,202c2.36-11.25,2.63-12.43,2.63-16.15a24.58,24.58,0,0,0-.91-7,14.86,14.86,0,0,1-.82-1.72c0-.18.09-.36.27-.36C187.91,175.93,192.9,185.18,192.9,187.54Zm12.34,13.24a12.69,12.69,0,0,1,1.63,1.09c2.27,1.45,6.44,2.63,12,2.63,5.08,0,5.26-.91,5.26-2.18,0-8.71-.54-9.89-1.18-11.25a26.94,26.94,0,0,1-1.45-2.72c0-.45,1.18-.73,1.91-.73,2.27,0,6.89,1.63,6.89,4.81,0,.73-1.36,8.16-1.36,9.07a.72.72,0,0,0,.73.82c.63,0,4.72-1.27,4.72-3.72,0-.36-.18-.73-.91-1.81-.09-.18-.36-.46-.36-.63s.46-.18,1.09-.18c6.71,0,8.71.73,8.71,3.17,0,4.26-8.53,7.71-12.34,8.62-1.27.27-1.72.54-1.72,1.81,0,4.35,1.18,11,1.81,14.6.46,2.81.55,3,2.36,3.45,8.35,2,13.61,6,13.61,8.8,0,1.63-1.72,3.72-3.36,3.72-1,0-4.53-3.18-5.35-3.72a11.53,11.53,0,0,0-5.44-2.36c-.91,0-.91.54-.91,1.63-.09,2.63-1.45,10.7-12.79,10.7-10.07,0-12.7-6.35-12.7-9.61,0-5.71,5.71-9.89,16.6-10.25,2.45-.09,3-.18,3-2.18,0-1.09-.36-7.62-1-13.7a1.39,1.39,0,0,0-1.63-1.45c-.82,0-4.17.36-4.9.36-4.35,0-8.07-.73-11.16-4-1-1-2.18-2.63-2.18-3.9C204.79,201.51,204.79,200.78,205.24,200.78Zm5.62-21a21.25,21.25,0,0,0,5.17.45,45.57,45.57,0,0,0,14.15-2.54,6,6,0,0,1,3.45-.91c.27,0,2.9,0,2.9,2.27,0,3.45-6,5.81-15.24,5.81-4.63,0-7.89-.73-10.62-3.08-.45-.45-1.36-1.45-1.36-1.81a.5.5,0,0,1,.27-.45A6.46,6.46,0,0,1,210.86,179.74Zm-1.09,56.33c0,3.17,4.54,4.08,7.53,4.08,4.08,0,8.62-1.91,8.62-7,0-1.18,0-2.36-5.81-2.36C213.31,230.81,209.77,233.62,209.77,236.07Z"/><path class="cls-3" d="M166.77,258a20.83,20.83,0,0,0-11.22-11.44,3.67,3.67,0,0,1-1.85-1.71A23.79,23.79,0,0,0,109,259.44a3.62,3.62,0,0,1-.39,2.3,23.51,23.51,0,0,0,32.5,31.47,3.73,3.73,0,0,1,3.2-.27,21.13,21.13,0,0,0,23-34A3.19,3.19,0,0,1,166.77,258Z"/><path class="cls-2" d="M115.27,266.17c2.94,0,8.13-2.88,8.13-3.6a4.46,4.46,0,0,0-.82-1.65c-3.45-4.68-3.86-5.2-3.86-6.28,0-1.65,2.73-3.45,7.56-3.45a33.16,33.16,0,0,1,4.79.36,13.4,13.4,0,0,0,1.91.15,1.26,1.26,0,0,0,1.44-1.39c0-.26-.36-1.54-.36-1.8a.35.35,0,0,1,.36-.36c.62,0,3.71,2.16,3.71,4.94,0,.26-.26,1.24-.26,1.49s.05.46.36.46,1.29-.41,1.54-.46a20.69,20.69,0,0,1,5-.77c5.2,0,9.88,4.37,9.88,9.26,0,3.09-2.16,8-8.9,8a13,13,0,0,1-9.57-4.84c0-.15.16-.2.31-.2s1.85.62,2.16.72a13.72,13.72,0,0,0,5,1.13c2.68,0,7-1.39,7-5.71a6.19,6.19,0,0,0-6.54-6.23c-4.27,0-6.95,1.7-15.08,6.89-1.54,1-1.54,1-1.54,1.39a2.4,2.4,0,0,0,.57,1.23c3.09,5,8.49,15.13,8.49,19.66,0,2-1.23,3.09-2.32,3.09-1.54,0-2.21-1.49-2.21-3,0-3.6,0-4-.57-6.18a48.44,48.44,0,0,0-5.4-12.82c-.2-.31-.41-.62-.72-.62a10.68,10.68,0,0,0-2.16,1.34c-.57.36-4.79,3.09-6.38,3.09-1,0-3.65-2.78-3.65-3.4a.51.51,0,0,1,.46-.51C113.83,266.07,114.6,266.17,115.27,266.17Zm6.9-11c0,1,.2,1.39,2.32,4.68.93,1.39,1,1.54,1.39,1.54a3.09,3.09,0,0,0,1.23-.62A76.76,76.76,0,0,1,133.9,257c.51-.26.72-.46.72-.72s-.16-.31-1.6-.93c-4.89-2.11-5.87-2.52-7.15-2.78C123.4,252.07,122.16,253.72,122.16,255.21Z"/><circle class="cls-4" cx="158.83" cy="158.83" r="156.83"/></symbol></defs><title>logo</title><g id="レイヤー_2" data-name="レイヤー 2"><g id="レイヤー_1-2" data-name="レイヤー 1"><use id="logo.svg" width="317.66" height="317.66" transform="scale(0.28)" xlink:href="#ロゴ"/></g></g></svg>